<svg version="1.1" id="Layer_1" xmlns="http://www.w3.org/2000/svg" xmlns:xlink="http://www.w3.org/1999/xlink" x="0px" y="0px"
	 width="100%" viewBox="0 0 1080 1080" enable-background="new 0 0 1080 1080" xml:space="preserve">
<path fill="#000000" opacity="1.000000" stroke="none" 
	d="
M629.000000,1081.000000 
	C419.357483,1081.000000 210.214935,1081.000000 1.036205,1081.000000 
	C1.036205,721.065674 1.036205,361.131348 1.036205,1.098518 
	C360.892761,1.098518 720.785522,1.098518 1080.839111,1.098518 
	C1080.839111,360.999939 1080.839111,720.999939 1080.839111,1081.000000 
	C930.464172,1081.000000 779.982117,1081.000000 629.000000,1081.000000 
M239.980270,736.106934 
	C240.946121,726.375549 242.062698,716.654602 242.743286,706.903320 
	C242.870651,705.078552 245.192276,701.834839 240.193863,700.709473 
	C235.998138,700.239075 231.812469,699.530212 227.604370,699.352600 
	C220.801682,699.065308 213.933380,698.591797 207.191162,699.232361 
	C202.789917,699.650513 198.442642,701.621399 194.292480,703.410156 
	C190.443863,705.068848 185.242630,706.510315 183.538162,709.631653 
	C179.657913,716.737549 174.243607,723.444763 174.814590,732.601562 
	C175.144104,737.886230 173.726562,743.289429 173.007980,748.627563 
	C171.865097,757.117798 172.487335,757.861633 181.190521,758.003235 
	C182.186707,758.019470 183.187851,758.000244 184.177750,758.092834 
	C192.751328,758.895142 201.322861,759.719360 210.067551,761.226685 
	C210.985901,762.525085 211.904251,763.823425 213.197678,765.684570 
	C221.189865,775.276123 229.126480,784.914734 237.192245,794.444092 
	C243.344284,801.712402 249.659973,808.842102 255.687775,816.793701 
	C255.454041,819.140625 255.220291,821.487549 254.226044,823.983398 
	C249.237137,824.878418 248.134995,828.721985 248.077469,832.826172 
	C248.016373,837.183960 248.608627,841.550964 248.315369,846.229065 
	C246.392105,848.471008 244.697830,850.971802 242.506271,852.910400 
	C232.531494,861.733826 222.712448,870.771912 212.286285,879.037720 
	C194.731689,892.954651 176.759766,906.345215 158.102951,919.997986 
	C152.934845,919.344482 147.648026,917.681946 142.626312,918.272766 
	C134.988312,919.171265 127.114204,913.566467 119.474335,921.442749 
	C109.019333,932.221191 96.701805,941.176208 85.477058,951.241150 
	C83.563522,952.956970 82.524582,956.226990 82.120811,958.933960 
	C81.107895,965.725220 80.198547,972.605652 80.202324,979.449768 
	C80.204964,984.229370 77.738564,989.454529 81.445091,993.884644 
	C84.289322,997.283997 87.365631,1000.489197 89.776077,1004.328430 
	C87.294373,1007.198120 88.624519,1010.268188 89.132095,1014.043030 
	C90.532310,1015.017334 91.822708,1016.562744 93.353691,1016.857117 
	C97.676811,1017.688477 102.211784,1017.552246 105.274689,1021.672180 
	C105.903252,1022.517700 107.550652,1022.834473 108.775734,1022.971313 
	C118.246704,1024.029175 127.718262,1025.116943 137.214066,1025.898804 
	C140.706192,1026.186401 144.052383,1026.435669 147.315109,1023.431946 
	C155.664017,1015.746033 164.695969,1008.808289 173.237946,1001.323914 
	C180.183105,995.238586 186.474380,988.608398 186.544830,977.903442 
	C191.438187,974.341736 196.424057,970.898499 201.191620,967.175720 
	C204.244446,964.791931 207.915802,962.507690 209.669891,959.286011 
	C214.522095,950.374023 218.514008,940.993652 223.289093,931.288635 
	C237.237152,919.572327 251.185196,907.856079 265.812103,895.991150 
	C272.549988,891.605408 279.287903,887.219727 286.940887,882.948853 
	C295.953949,883.629456 304.966980,884.310059 314.269745,885.599426 
	C316.459595,888.103027 318.649445,890.606628 320.996521,893.789551 
	C328.851501,903.213501 336.653931,912.681946 344.579132,922.046448 
	C350.279358,928.781860 356.143463,935.378540 361.959412,942.879211 
	C360.976440,953.644470 359.892700,964.403381 359.205048,975.187439 
	C359.151031,976.034729 361.783661,977.715210 363.292542,977.882629 
	C369.017792,978.517761 375.024933,977.802917 380.502075,979.226501 
	C390.692108,981.874939 399.466888,977.921692 408.570618,974.962219 
	C409.102753,974.789185 409.747070,974.387085 409.967590,973.917175 
	C412.582764,968.344971 415.127197,962.739624 418.097260,956.455200 
	C422.252350,944.243408 422.321014,931.528442 422.856934,918.048767 
	C422.243347,917.367004 421.685120,916.153503 421.007843,916.083008 
	C410.012390,914.937683 399.001801,913.937256 387.683929,912.323914 
	C377.287109,899.930847 366.938538,887.496887 356.477020,875.158691 
	C349.018341,866.362061 341.407745,857.694153 333.942017,848.265198 
	C340.968964,842.172485 347.999725,836.084106 355.021912,829.985840 
	C363.063721,823.001953 371.097931,816.009277 379.991882,808.998718 
	C380.985382,809.004517 382.046143,808.781494 382.962189,809.050781 
	C394.861603,812.548767 404.780914,808.627808 414.094788,801.558899 
	C420.360260,807.169434 426.694458,812.705322 432.877258,818.405518 
	C446.863617,831.300110 460.890656,844.154175 474.683838,857.253540 
	C487.683685,869.599487 500.411713,882.231934 513.246887,894.751038 
	C522.509705,903.785767 531.752136,912.841431 541.668640,921.775696 
	C542.386658,921.362000 543.159973,921.021179 543.814575,920.523987 
	C560.672791,907.720947 577.556763,894.951416 594.354858,882.069763 
	C607.868469,871.706970 621.456299,861.428040 634.677002,850.699951 
	C646.756104,840.898010 658.361572,830.513794 670.221069,820.439392 
	C684.973755,807.907349 700.243164,795.938416 714.440735,782.808655 
	C735.314453,763.504822 755.461731,743.414185 775.871826,723.610657 
	C790.081482,709.823364 804.229187,695.972107 818.363342,682.107361 
	C820.695374,679.819824 823.086304,677.511841 824.989441,674.880127 
	C840.800598,653.016724 856.598267,631.141846 872.170715,609.108398 
	C875.920837,603.802429 880.396362,598.261414 881.812561,592.192444 
	C886.234497,573.243469 889.391602,553.997375 892.954590,534.850830 
	C894.371643,527.236389 895.567078,519.580750 896.926270,511.214996 
	C895.649231,508.553711 894.284912,505.930389 893.108765,503.225220 
	C883.238342,480.521912 873.382751,457.812073 863.567200,435.084961 
	C860.255981,427.418121 857.072876,419.695923 854.164307,411.399200 
	C856.765381,409.108459 859.319153,406.761353 861.975952,404.537231 
	C871.454285,396.602386 881.023926,388.775757 890.450073,380.779724 
	C898.121704,374.272064 905.637268,367.580414 913.809265,361.308838 
	C914.812866,361.848755 915.869080,362.310150 916.811707,362.941162 
	C923.730042,367.572510 926.979797,362.948364 928.611389,357.587036 
	C929.738647,353.882843 930.221191,349.982452 931.604248,345.844238 
	C935.038086,342.335785 939.250793,339.303558 941.746826,335.221649 
	C947.250122,326.221588 951.829834,316.660614 956.899048,307.390106 
	C960.218567,301.319427 963.492554,295.200928 967.222168,289.382843 
	C972.542847,281.082703 978.262146,273.038086 984.192871,264.247925 
	C988.744202,251.859741 993.295532,239.471542 998.168823,226.420670 
	C999.115356,223.628403 1000.061890,220.836151 1001.658203,217.669159 
	C1003.069092,213.599640 1004.479980,209.530136 1005.890869,205.460632 
	C1005.577881,205.132202 1005.264832,204.803772 1004.951782,204.475342 
	C995.584900,209.477783 988.756165,217.943726 980.038757,223.139374 
	C979.339600,214.649994 978.719666,206.153061 977.910767,197.674149 
	C977.447327,192.816803 976.676575,187.988770 976.913391,183.020203 
	C981.495667,183.359009 986.333679,182.879761 990.604309,184.215286 
	C998.323853,186.629379 1003.761963,184.472183 1008.323547,178.242294 
	C1011.015564,174.565811 1015.680176,171.552231 1016.656067,167.556320 
	C1019.001160,157.954254 1019.694397,147.948792 1021.696960,137.816345 
	C1025.273438,135.279419 1028.616821,132.284256 1032.483398,130.317413 
	C1037.738892,127.644012 1040.375610,123.383522 1042.062378,118.109940 
	C1042.503296,116.731140 1043.238525,115.422012 1043.988037,114.170380 
	C1048.875488,106.009392 1050.536255,98.249847 1042.485474,90.735413 
	C1040.082886,88.493050 1038.854248,85.011459 1036.998169,82.155968 
	C1036.296997,81.077477 1035.535522,79.792397 1034.470215,79.237778 
	C1029.010742,76.395660 1023.443359,73.761017 1018.008362,70.226341 
	C1018.675720,64.836220 1020.670837,59.183876 1019.671326,54.122955 
	C1018.446289,47.919952 1014.806091,42.167992 1011.984131,36.330254 
	C1011.478027,35.283325 1009.965759,34.322041 1008.766296,34.083099 
	C1004.460022,33.225250 1000.102478,32.574791 995.738098,32.073666 
	C991.499756,31.587019 986.903320,30.214935 983.041382,31.295204 
	C975.194519,33.490177 967.737061,37.076790 961.133301,39.688705 
	C957.329407,38.359287 954.013977,36.796906 950.524780,36.077988 
	C945.584961,35.060181 940.532349,34.429207 935.497375,34.098785 
	C932.827881,33.923595 929.517029,33.888470 927.503479,35.264645 
	C922.656189,38.577484 918.468994,42.840542 913.893005,46.569973 
	C908.198975,51.210499 908.822571,58.245850 907.091309,64.329231 
	C905.233093,70.859146 904.924561,77.528465 897.951111,81.919563 
	C891.820557,85.779907 885.806641,90.535248 883.295898,98.182617 
	C881.887085,102.473816 879.656006,106.490501 878.136230,110.752419 
	C877.628113,112.177567 877.544739,114.436096 878.340881,115.538132 
	C885.707397,125.735664 894.340027,134.447159 906.990234,138.932678 
	C907.661804,143.587387 908.324219,148.243423 909.006897,152.896500 
	C910.135986,160.591492 911.009033,168.279114 919.032349,172.643921 
	C924.295776,175.507324 927.759888,181.844864 935.314087,180.070541 
	C940.964661,178.743332 946.786011,178.159119 952.495605,177.058777 
	C954.416077,176.688675 956.226562,175.748199 958.759583,175.260468 
	C961.485962,176.544861 964.212402,177.829254 966.981873,180.025482 
	C967.647888,191.032425 968.274719,202.041962 969.000977,213.044922 
	C969.260254,216.972412 968.768738,220.218491 965.490601,223.213242 
	C960.384216,227.878082 955.673950,233.040619 951.244446,238.365463 
	C946.147278,244.492966 939.265869,249.676132 938.416443,259.093842 
	C919.981934,274.608704 901.547424,290.123566 882.973083,305.756073 
	C885.217957,309.316925 887.495117,312.929108 890.428833,317.582611 
	C886.422546,316.936951 883.698853,316.179321 880.963562,316.134796 
	C877.229126,316.073944 872.867859,315.428680 869.887146,317.062408 
	C865.091675,319.690765 861.217773,323.992645 856.932007,327.560394 
	C849.505920,333.742249 842.022522,339.855804 834.638123,346.086945 
	C827.621155,352.008118 820.700256,358.043121 813.023315,364.027618 
	C811.393555,364.692627 809.767395,365.366577 808.133362,366.021118 
	C798.908020,369.716370 789.680847,373.407043 779.776733,376.931824 
	C777.193481,375.933777 774.625854,374.893066 772.024597,373.944427 
	C748.489258,365.361206 724.918091,356.875305 701.419983,348.191528 
	C687.539246,343.061859 685.406494,343.080261 673.549072,350.186096 
	C671.435059,351.452911 669.344849,352.765350 667.181885,353.943298 
	C652.329590,362.031647 637.425476,370.025330 622.605286,378.171936 
	C597.286316,392.089691 571.943970,405.968628 546.797058,420.192230 
	C542.558472,422.589661 539.414673,422.126984 535.644592,419.936188 
	C516.066101,408.558990 496.464355,397.220978 476.811218,385.973297 
	C450.318878,370.811493 423.785248,355.721558 397.209290,340.707092 
	C395.937836,339.988800 393.787292,339.649658 392.548981,340.221954 
	C363.036377,353.861542 333.594116,367.653259 304.135925,381.410583 
	C290.298798,387.872742 276.448547,394.306702 262.618713,400.784363 
	C258.514069,402.706909 254.364883,404.202606 252.318741,409.138306 
	C238.327576,442.887665 224.087051,476.533569 210.000870,510.243744 
	C209.501465,511.438904 209.504181,513.004211 209.730240,514.318298 
	C213.785431,537.889526 217.809494,561.467163 222.107391,584.994568 
	C222.972794,589.731873 223.898605,595.007202 226.576920,598.765808 
	C236.289856,612.396606 246.884445,625.394775 256.915558,638.804260 
	C272.223999,659.268372 287.184265,679.925171 305.908905,697.630798 
	C323.077850,713.865417 339.338867,731.060059 355.379944,748.127441 
	C351.818115,751.319946 348.342529,754.615356 344.678497,757.685913 
	C333.116913,767.374939 321.510101,777.010437 309.868774,786.603577 
	C304.316284,791.179260 298.646271,795.612427 292.764771,799.477539 
	C282.604187,787.278992 272.495880,775.036377 262.265472,762.896667 
	C254.925995,754.187500 247.423264,745.615845 239.980270,736.106934 
z"/>
<path fill="#C9262A" opacity="1.000000" stroke="none" 
	d="
M853.831238,411.998993 
	C857.072876,419.695923 860.255981,427.418121 863.567200,435.084961 
	C873.382751,457.812073 883.238342,480.521912 893.108765,503.225220 
	C894.284912,505.930389 895.649231,508.553711 896.482605,511.600281 
	C894.400085,511.751953 892.741333,511.612549 891.125488,511.270386 
	C873.406433,507.518402 855.694153,503.734833 837.826294,499.656555 
	C829.667542,485.326782 821.733948,471.258514 813.577942,457.320374 
	C812.395386,455.299469 810.396912,453.450989 808.339172,452.311829 
	C804.272583,450.060699 799.909241,448.341858 795.653076,446.437561 
	C761.609863,431.205841 727.496643,416.127716 693.567139,400.646942 
	C685.736206,397.073944 678.465271,393.876587 670.317749,399.331451 
	C668.833679,400.325043 666.921936,400.673370 665.218140,401.346130 
	C625.403259,417.067291 585.602783,432.825165 545.739929,448.423828 
	C543.632019,449.248688 540.689636,449.518250 538.659485,448.717896 
	C520.690063,441.633148 502.818024,434.298981 484.958038,426.939392 
	C458.169067,415.900482 431.436188,404.724579 404.594635,393.815704 
	C402.665802,393.031799 399.601532,393.171448 397.812469,394.191864 
	C365.850250,412.421509 334.029388,430.898773 302.105896,449.196686 
	C296.986786,452.130829 292.391357,455.104858 289.412933,460.646881 
	C283.110809,472.373383 276.082703,483.707794 269.581482,495.331177 
	C268.532227,497.207123 268.002563,499.852264 268.349213,501.958069 
	C272.996613,530.190430 277.801727,558.397156 282.684814,586.589905 
	C283.385162,590.633362 283.813446,595.112671 285.868225,598.472534 
	C305.590668,630.720947 325.590210,662.800476 345.634979,694.850464 
	C348.772247,699.866760 351.848969,705.241211 356.132538,709.162170 
	C370.969238,722.742920 386.345154,735.733704 401.478546,748.991577 
	C411.235199,757.539001 420.450806,766.785217 430.740753,774.626648 
	C456.559662,794.301575 482.881012,813.316162 508.939148,832.678650 
	C519.750366,840.711914 530.404114,848.956970 541.141602,857.567566 
	C541.103699,879.315552 541.053711,900.601624 541.003723,921.887756 
	C531.752136,912.841431 522.509705,903.785767 513.246887,894.751038 
	C500.411713,882.231934 487.683685,869.599487 474.683838,857.253540 
	C460.890656,844.154175 446.863617,831.300110 432.877258,818.405518 
	C426.694458,812.705322 420.360260,807.169434 413.875946,800.942383 
	C410.928772,795.831238 406.764740,793.365906 401.892090,791.606567 
	C401.313141,789.950928 400.996094,788.319397 400.010803,787.419250 
	C393.533813,781.501831 386.912659,775.742126 380.200378,769.614624 
	C373.611298,762.890625 367.219208,756.421509 360.655579,750.131409 
	C359.463745,748.989197 357.569794,748.579529 355.999939,747.831665 
	C339.338867,731.060059 323.077850,713.865417 305.908905,697.630798 
	C287.184265,679.925171 272.223999,659.268372 256.915558,638.804260 
	C246.884445,625.394775 236.289856,612.396606 226.576920,598.765808 
	C223.898605,595.007202 222.972794,589.731873 222.107391,584.994568 
	C217.809494,561.467163 213.785431,537.889526 209.730240,514.318298 
	C209.504181,513.004211 209.501465,511.438904 210.000870,510.243744 
	C224.087051,476.533569 238.327576,442.887665 252.318741,409.138306 
	C254.364883,404.202606 258.514069,402.706909 262.618713,400.784363 
	C276.448547,394.306702 290.298798,387.872742 304.135925,381.410583 
	C333.594116,367.653259 363.036377,353.861542 392.548981,340.221954 
	C393.787292,339.649658 395.937836,339.988800 397.209290,340.707092 
	C423.785248,355.721558 450.318878,370.811493 476.811218,385.973297 
	C496.464355,397.220978 516.066101,408.558990 535.644592,419.936188 
	C539.414673,422.126984 542.558472,422.589661 546.797058,420.192230 
	C571.943970,405.968628 597.286316,392.089691 622.605286,378.171936 
	C637.425476,370.025330 652.329590,362.031647 667.181885,353.943298 
	C669.344849,352.765350 671.435059,351.452911 673.549072,350.186096 
	C685.406494,343.080261 687.539246,343.061859 701.419983,348.191528 
	C724.918091,356.875305 748.489258,365.361206 772.024597,373.944427 
	C774.625854,374.893066 777.193481,375.933777 780.206238,377.382263 
	C784.932739,379.216644 789.229736,380.600647 793.564209,382.370178 
	C804.967712,386.877441 816.333801,390.999176 827.979248,395.356781 
	C831.652832,396.850281 835.014771,398.205353 838.448669,399.343231 
	C843.957275,401.168579 849.497986,402.775940 850.980652,409.620697 
	C851.187256,410.574554 852.845154,411.214020 853.831238,411.998993 
z"/>
<path fill="#7B0D31" opacity="1.000000" stroke="none" 
	d="
M837.979980,499.959839 
	C855.694153,503.734833 873.406433,507.518402 891.125488,511.270386 
	C892.741333,511.612549 894.400085,511.751953 896.451172,511.964691 
	C895.567078,519.580750 894.371643,527.236389 892.954590,534.850830 
	C889.391602,553.997375 886.234497,573.243469 881.812561,592.192444 
	C880.396362,598.261414 875.920837,603.802429 872.170715,609.108398 
	C856.598267,631.141846 840.800598,653.016724 824.989441,674.880127 
	C823.086304,677.511841 820.695374,679.819824 818.363342,682.107361 
	C804.229187,695.972107 790.081482,709.823364 775.871826,723.610657 
	C755.461731,743.414185 735.314453,763.504822 714.440735,782.808655 
	C700.243164,795.938416 684.973755,807.907349 670.221069,820.439392 
	C658.361572,830.513794 646.756104,840.898010 634.677002,850.699951 
	C621.456299,861.428040 607.868469,871.706970 594.354858,882.069763 
	C577.556763,894.951416 560.672791,907.720947 543.814575,920.523987 
	C543.159973,921.021179 542.386658,921.362000 541.336182,921.831726 
	C541.053711,900.601624 541.103699,879.315552 541.421753,857.383850 
	C576.387390,835.035156 611.095886,813.349609 645.752502,791.581482 
	C647.654541,790.386841 649.124268,788.504028 651.152283,786.889160 
	C660.408386,779.646240 669.421021,772.591125 678.183960,765.238403 
	C699.570007,747.293762 720.875000,729.251831 742.120483,711.140930 
	C745.339722,708.396729 748.065918,705.074097 751.332642,701.860840 
	C753.460388,700.131348 755.782593,698.881592 757.014526,696.940063 
	C774.597412,669.229004 791.745239,641.237244 809.639954,613.730835 
	C817.225891,602.070312 822.238220,590.043396 824.329895,576.159058 
	C828.172363,550.652771 833.355591,525.348389 837.979980,499.959839 
z"/>
<path fill="#EBB22B" opacity="1.000000" stroke="none" 
	d="
M906.924133,138.076248 
	C894.340027,134.447159 885.707397,125.735664 878.340881,115.538132 
	C877.544739,114.436096 877.628113,112.177567 878.136230,110.752419 
	C879.656006,106.490501 881.887085,102.473816 883.295898,98.182617 
	C885.806641,90.535248 891.820557,85.779907 897.951111,81.919563 
	C904.924561,77.528465 905.233093,70.859146 907.091309,64.329231 
	C908.822571,58.245850 908.198975,51.210499 913.893005,46.569973 
	C918.468994,42.840542 922.656189,38.577484 927.503479,35.264645 
	C929.517029,33.888470 932.827881,33.923595 935.497375,34.098785 
	C940.532349,34.429207 945.584961,35.060181 950.524780,36.077988 
	C954.013977,36.796906 957.329407,38.359287 961.133301,39.688705 
	C967.737061,37.076790 975.194519,33.490177 983.041382,31.295204 
	C986.903320,30.214935 991.499756,31.587019 995.738098,32.073666 
	C1000.102478,32.574791 1004.460022,33.225250 1008.766296,34.083099 
	C1009.965759,34.322041 1011.478027,35.283325 1011.984131,36.330254 
	C1014.806091,42.167992 1018.446289,47.919952 1019.671326,54.122955 
	C1020.670837,59.183876 1018.675720,64.836220 1017.689209,70.870987 
	C1016.156128,74.504219 1015.796387,78.664299 1013.581116,80.279297 
	C1003.817993,87.396980 993.661194,94.122459 980.429626,94.120255 
	C978.866028,92.924355 977.404236,91.873550 976.530151,90.459457 
	C974.655640,87.426735 960.002014,80.664635 956.501282,81.532677 
	C953.921814,82.172287 951.379517,82.961815 948.822327,83.690407 
	C940.774353,85.983406 936.523254,90.832802 936.127869,99.485886 
	C935.861877,105.304977 936.623840,111.171051 936.567261,117.029114 
	C935.088196,117.644218 933.761292,118.032654 932.881226,118.883339 
	C927.458496,124.124840 921.947998,129.297470 916.854614,134.848953 
	C913.970581,137.992264 910.973206,139.261978 906.924133,138.076248 
z"/>
<path fill="#779FC0" opacity="1.000000" stroke="none" 
	d="
M90.338722,1003.780701 
	C87.365631,1000.489197 84.289322,997.283997 81.445091,993.884644 
	C77.738564,989.454529 80.204964,984.229370 80.202324,979.449768 
	C80.198547,972.605652 81.107895,965.725220 82.120811,958.933960 
	C82.524582,956.226990 83.563522,952.956970 85.477058,951.241150 
	C96.701805,941.176208 109.019333,932.221191 119.474335,921.442749 
	C127.114204,913.566467 134.988312,919.171265 142.626312,918.272766 
	C147.648026,917.681946 152.934845,919.344482 158.470917,920.315674 
	C157.237930,922.818298 155.636993,925.003235 153.246796,928.265320 
	C156.954483,928.599243 159.514709,928.731567 162.045853,929.076904 
	C168.702118,929.985168 175.345718,930.986084 181.708786,932.197083 
	C180.977692,933.307068 180.211670,934.142578 180.134979,935.037170 
	C179.063400,947.536255 178.085999,960.043335 176.903534,972.806396 
	C162.852005,984.771362 149.060059,996.573181 135.020660,1008.072815 
	C133.146317,1009.608032 129.981522,1010.326294 127.479279,1010.194031 
	C120.010414,1009.799255 112.588364,1008.541321 105.119766,1008.110901 
	C99.773048,1007.802795 94.489265,1007.905884 90.338722,1003.780701 
z"/>
<path fill="#769FC0" opacity="1.000000" stroke="none" 
	d="
M997.846802,227.083359 
	C993.295532,239.471542 988.744202,251.859741 983.651489,264.597076 
	C981.706116,265.784515 980.159485,266.451874 978.919128,267.486511 
	C956.804565,285.931519 934.694397,304.382111 912.657715,322.920074 
	C903.626953,330.517029 894.772400,338.323395 885.477600,346.188599 
	C883.475769,346.581146 881.841614,346.923157 880.191345,347.041962 
	C865.015991,348.134460 850.105957,350.213715 836.139404,356.900269 
	C830.597412,359.553497 824.701904,361.493835 818.892395,363.546478 
	C817.314270,364.104065 815.463013,363.888672 813.737122,364.028076 
	C820.700256,358.043121 827.621155,352.008118 834.638123,346.086945 
	C842.022522,339.855804 849.505920,333.742249 856.932007,327.560394 
	C861.217773,323.992645 865.091675,319.690765 869.887146,317.062408 
	C872.867859,315.428680 877.229126,316.073944 880.963562,316.134796 
	C883.698853,316.179321 886.422546,316.936951 890.428833,317.582611 
	C887.495117,312.929108 885.217957,309.316925 882.973083,305.756073 
	C901.547424,290.123566 919.981934,274.608704 939.071655,258.949036 
	C944.136902,255.365616 948.546997,251.926987 953.322083,248.335236 
	C963.046814,243.550720 972.406555,238.919296 981.766357,234.287888 
	C981.643982,234.091385 981.521667,233.894882 981.399292,233.698380 
	C976.921448,234.455215 972.443542,235.212051 967.976929,235.978973 
	C967.988281,235.989059 968.008606,236.005341 968.134216,235.695679 
	C972.230225,231.594940 976.200562,227.803879 980.170898,224.012848 
	C988.756165,217.943726 995.584900,209.477783 1004.951782,204.475342 
	C1005.264832,204.803772 1005.577881,205.132202 1005.890869,205.460632 
	C1004.479980,209.530136 1003.069092,213.599640 1001.079956,217.650055 
	C992.611816,218.457932 989.496643,221.783951 988.780579,230.407654 
	C991.877686,229.272049 994.862244,228.177704 997.846802,227.083359 
z"/>
<path fill="#4B5E99" opacity="1.000000" stroke="none" 
	d="
M181.994370,931.950073 
	C175.345718,930.986084 168.702118,929.985168 162.045853,929.076904 
	C159.514709,928.731567 156.954483,928.599243 153.246796,928.265320 
	C155.636993,925.003235 157.237930,922.818298 158.901154,920.295288 
	C176.759766,906.345215 194.731689,892.954651 212.286285,879.037720 
	C222.712448,870.771912 232.531494,861.733826 242.506271,852.910400 
	C244.697830,850.971802 246.392105,848.471008 248.835632,846.216309 
	C250.529312,845.533752 251.702728,844.863953 253.166290,844.116882 
	C253.656448,844.031738 253.856461,844.023743 254.099091,844.473083 
	C254.110474,846.260010 254.144135,847.594727 254.037399,848.918152 
	C253.370270,857.190247 252.647415,865.457886 252.000916,873.731506 
	C251.840271,875.787354 251.698273,878.028564 255.158051,877.424072 
	C255.901672,878.097534 256.478180,878.549927 257.124512,879.345093 
	C259.840668,885.171875 262.486969,890.655884 265.133240,896.139832 
	C251.185196,907.856079 237.237152,919.572327 222.709549,931.573486 
	C220.730133,932.673157 219.279129,933.412109 217.938629,934.315125 
	C208.763123,940.495728 202.410110,949.294983 196.000702,958.025391 
	C195.990250,958.003174 196.038071,958.014221 195.797363,958.107056 
	C195.367859,958.479492 195.179077,958.759033 194.994934,959.019409 
	C194.999573,959.000183 195.039047,958.998657 194.744690,959.046448 
	C193.967773,959.422791 193.485245,959.751343 193.004715,960.046570 
	C193.006714,960.013245 193.071808,960.028198 192.810455,960.139771 
	C192.291733,960.529907 192.034348,960.808533 191.523727,961.280640 
	C189.514755,962.776123 187.759048,964.078247 185.998749,964.901855 
	C187.299423,953.991333 187.785233,943.638306 182.973053,933.528015 
	C182.603439,932.827209 182.298904,932.388672 181.994370,931.950073 
z"/>
<path fill="#769FC0" opacity="1.000000" stroke="none" 
	d="
M417.690216,957.142944 
	C415.127197,962.739624 412.582764,968.344971 409.967590,973.917175 
	C409.747070,974.387085 409.102753,974.789185 408.570618,974.962219 
	C399.466888,977.921692 390.692108,981.874939 380.502075,979.226501 
	C375.024933,977.802917 369.017792,978.517761 363.292542,977.882629 
	C361.783661,977.715210 359.151031,976.034729 359.205048,975.187439 
	C359.892700,964.403381 360.976440,953.644470 362.209167,942.165894 
	C363.043884,936.855286 363.773407,932.270386 364.171234,927.656921 
	C364.534424,923.445740 366.118011,921.206726 370.768280,922.020386 
	C373.869324,922.562988 377.056854,922.590332 380.185211,923.003357 
	C383.397675,923.427490 385.288116,922.155945 386.102173,918.680542 
	C386.830750,916.535706 387.412689,914.719910 387.994629,912.904175 
	C399.001801,913.937256 410.012390,914.937683 421.007843,916.083008 
	C421.685120,916.153503 422.243347,917.367004 422.476196,918.597900 
	C421.349060,920.781067 420.161133,922.355469 419.931335,924.059143 
	C418.827454,932.242249 417.850555,940.448547 417.118774,948.672424 
	C416.870972,951.456909 417.475281,954.317261 417.690216,957.142944 
z"/>
<path fill="#769FC0" opacity="1.000000" stroke="none" 
	d="
M209.894989,760.536987 
	C201.322861,759.719360 192.751328,758.895142 184.177750,758.092834 
	C183.187851,758.000244 182.186707,758.019470 181.190521,758.003235 
	C172.487335,757.861633 171.865097,757.117798 173.007980,748.627563 
	C173.726562,743.289429 175.144104,737.886230 174.814590,732.601562 
	C174.243607,723.444763 179.657913,716.737549 183.538162,709.631653 
	C185.242630,706.510315 190.443863,705.068848 194.292480,703.410156 
	C198.442642,701.621399 202.789917,699.650513 207.191162,699.232361 
	C213.933380,698.591797 220.801682,699.065308 227.604370,699.352600 
	C231.812469,699.530212 235.998138,700.239075 240.531952,701.231323 
	C239.416519,702.778381 237.902359,703.729248 236.527573,704.850891 
	C235.309097,705.845032 233.365311,706.944824 233.250824,708.142212 
	C232.204498,719.086365 231.488098,730.062134 230.596054,741.415405 
	C229.997284,746.198425 229.049896,750.597046 229.074371,754.990173 
	C229.100815,759.731873 227.804825,761.409790 222.780106,760.602844 
	C218.589630,759.929871 214.197693,760.511230 209.894989,760.536987 
z"/>
<path fill="#EBB22B" opacity="1.000000" stroke="none" 
	d="
M966.938782,179.113647 
	C964.212402,177.829254 961.485962,176.544861 958.421509,174.791992 
	C959.937744,170.880859 961.922180,167.500259 963.605042,163.975662 
	C964.926453,161.208221 966.873230,158.238266 966.803711,155.400818 
	C966.586853,146.546768 965.544800,137.712936 965.026611,128.560013 
	C969.813782,126.622345 974.397095,124.995903 979.059570,123.170227 
	C980.552368,120.929398 981.965942,118.887810 983.793213,116.880219 
	C991.330933,120.641335 998.560730,124.182602 1005.544678,128.155960 
	C1010.875854,131.188995 1015.895752,134.769272 1021.054077,138.106110 
	C1019.694397,147.948792 1019.001160,157.954254 1016.656067,167.556320 
	C1015.680176,171.552231 1011.015564,174.565811 1008.323547,178.242294 
	C1003.761963,184.472183 998.323853,186.629379 990.604309,184.215286 
	C986.333679,182.879761 981.495667,183.359009 976.223267,182.935776 
	C975.303589,182.532806 975.074036,182.214264 974.585815,181.678253 
	C971.864319,180.678421 969.401550,179.896042 966.938782,179.113647 
z"/>
<path fill="#476175" opacity="1.000000" stroke="none" 
	d="
M257.054688,879.002319 
	C256.478180,878.549927 255.901672,878.097534 255.524170,877.295837 
	C267.094482,873.146851 278.410522,869.468811 290.766327,871.935425 
	C296.277863,873.035767 302.028595,872.879395 307.615845,873.677795 
	C311.869141,874.285583 314.248138,873.689697 314.120209,868.560547 
	C314.004822,863.934082 314.928009,859.291931 315.118988,854.645447 
	C315.583008,843.358154 317.287781,832.502625 324.624451,823.295044 
	C325.319733,822.422546 325.423462,821.078674 326.070679,819.154419 
	C314.317444,821.786865 303.555542,824.554199 292.650757,826.535217 
	C282.566864,828.367188 273.764404,831.589111 267.045929,840.065247 
	C262.254150,846.110657 261.653656,845.634705 254.999695,841.305298 
	C255.481033,836.100708 259.025360,834.775696 262.960541,833.301392 
	C288.466400,823.745850 313.335815,812.264099 340.588165,808.096619 
	C343.042236,807.721436 345.519226,807.176697 347.978424,807.211670 
	C356.617920,807.334351 365.256348,807.625305 373.890106,807.976440 
	C375.649780,808.047974 377.387573,808.658447 379.135468,809.020508 
	C371.097931,816.009277 363.063721,823.001953 355.021912,829.985840 
	C347.999725,836.084106 340.968964,842.172485 333.589264,848.739014 
	C332.119873,851.505249 331.003235,853.797668 329.717224,856.287354 
	C329.373962,856.971313 329.200012,857.458008 328.811768,858.291992 
	C328.054108,864.725403 327.393646,870.804077 326.999542,876.899963 
	C326.583344,883.337402 326.019928,883.926514 319.715240,884.040466 
	C317.798401,884.075134 315.891479,884.658569 313.980042,884.990601 
	C304.966980,884.310059 295.953949,883.629456 286.253967,882.604980 
	C284.375916,881.801880 283.211182,881.038574 281.989380,880.932495 
	C273.684540,880.211731 265.367676,879.629333 257.054688,879.002319 
z"/>
<path fill="#769FC0" opacity="1.000000" stroke="none" 
	d="
M355.689941,747.979553 
	C357.569794,748.579529 359.463745,748.989197 360.655579,750.131409 
	C367.219208,756.421509 373.611298,762.890625 379.883301,769.774780 
	C369.397980,779.087646 359.091553,787.923950 348.351196,796.815796 
	C330.637177,798.679382 313.784485,802.252380 297.580566,808.697632 
	C285.513092,813.497559 273.377625,818.129089 261.222748,822.703735 
	C259.277649,823.435730 257.071838,823.474976 254.986557,823.834473 
	C255.220291,821.487549 255.454041,819.140625 256.039948,816.105957 
	C256.885925,812.846375 257.654846,810.290771 257.807587,807.698792 
	C258.024353,804.019470 259.508942,802.948486 263.192535,803.437927 
	C269.379913,804.260254 275.633331,804.707520 281.872742,804.936157 
	C283.564514,804.998108 285.305817,803.708984 287.349854,802.903748 
	C289.460022,801.881775 291.244751,800.995972 293.029480,800.110168 
	C298.646271,795.612427 304.316284,791.179260 309.868774,786.603577 
	C321.510101,777.010437 333.116913,767.374939 344.678497,757.685913 
	C348.342529,754.615356 351.818115,751.319946 355.689941,747.979553 
z"/>
<path fill="#EBBC01" opacity="1.000000" stroke="none" 
	d="
M1021.375549,137.961227 
	C1015.895752,134.769272 1010.875854,131.188995 1005.544678,128.155960 
	C998.560730,124.182602 991.330933,120.641335 983.878784,116.507248 
	C983.804565,113.398178 984.058533,110.696068 984.400208,107.585358 
	C984.379639,105.471046 984.591980,103.663872 984.091675,102.082161 
	C983.226685,99.347961 981.919495,96.753670 980.797791,94.100693 
	C993.661194,94.122459 1003.817993,87.396980 1013.581116,80.279297 
	C1015.796387,78.664299 1016.156128,74.504219 1017.641846,71.284737 
	C1023.443359,73.761017 1029.010742,76.395660 1034.470215,79.237778 
	C1035.535522,79.792397 1036.296997,81.077477 1036.998169,82.155968 
	C1038.854248,85.011459 1040.082886,88.493050 1042.485474,90.735413 
	C1050.536255,98.249847 1048.875488,106.009392 1043.988037,114.170380 
	C1043.238525,115.422012 1042.503296,116.731140 1042.062378,118.109940 
	C1040.375610,123.383522 1037.738892,127.644012 1032.483398,130.317413 
	C1028.616821,132.284256 1025.273438,135.279419 1021.375549,137.961227 
z"/>
<path fill="#EBBC01" opacity="1.000000" stroke="none" 
	d="
M964.822754,128.871246 
	C965.544800,137.712936 966.586853,146.546768 966.803711,155.400818 
	C966.873230,158.238266 964.926453,161.208221 963.605042,163.975662 
	C961.922180,167.500259 959.937744,170.880859 958.085327,174.695969 
	C956.226562,175.748199 954.416077,176.688675 952.495605,177.058777 
	C946.786011,178.159119 940.964661,178.743332 935.314087,180.070541 
	C927.759888,181.844864 924.295776,175.507324 919.032349,172.643921 
	C911.009033,168.279114 910.135986,160.591492 909.006897,152.896500 
	C908.324219,148.243423 907.661804,143.587387 906.957153,138.504456 
	C910.973206,139.261978 913.970581,137.992264 916.854614,134.848953 
	C921.947998,129.297470 927.458496,124.124840 932.881226,118.883339 
	C933.761292,118.032654 935.088196,117.644218 936.740723,117.339966 
	C938.121094,119.216728 938.630127,121.781815 939.874268,122.209862 
	C946.497986,124.488548 953.295654,126.268456 960.057434,128.133118 
	C961.596680,128.557587 963.231750,128.634415 964.822754,128.871246 
z"/>
<path fill="#4B5E99" opacity="1.000000" stroke="none" 
	d="
M287.024384,803.039917 
	C285.305817,803.708984 283.564514,804.998108 281.872742,804.936157 
	C275.633331,804.707520 269.379913,804.260254 263.192535,803.437927 
	C259.508942,802.948486 258.024353,804.019470 257.807587,807.698792 
	C257.654846,810.290771 256.885925,812.846375 256.147491,815.725830 
	C249.659973,808.842102 243.344284,801.712402 237.192245,794.444092 
	C229.126480,784.914734 221.189865,775.276123 213.326996,765.108643 
	C216.053253,764.344910 218.654221,763.953247 221.246399,764.004639 
	C232.541534,764.228821 232.807388,764.294800 233.619858,752.937256 
	C233.895401,749.085632 232.449432,745.110779 231.993591,740.907043 
	C233.416718,740.086426 234.636398,739.551086 236.061111,739.285767 
	C242.538803,746.564331 248.399185,754.012146 255.231369,760.424500 
	C259.666412,764.586975 263.729370,768.499023 265.822235,774.385803 
	C266.842041,777.254456 268.944244,779.803711 270.835571,782.284851 
	C276.154358,789.262268 281.617920,796.129333 287.024384,803.039917 
z"/>
<path fill="#476175" opacity="1.000000" stroke="none" 
	d="
M853.997803,411.699097 
	C852.845154,411.214020 851.187256,410.574554 850.980652,409.620697 
	C849.497986,402.775940 843.957275,401.168579 838.448669,399.343231 
	C835.014771,398.205353 831.652832,396.850281 828.151001,395.040070 
	C833.699646,389.608185 839.367310,384.742065 845.009399,379.846436 
	C853.024536,372.891785 861.020874,365.915466 869.028564,358.985901 
	C869.031860,359.023407 868.956970,359.031281 869.091553,358.918610 
	C869.407288,358.657501 869.572327,358.492920 870.187134,358.247467 
	C879.864380,357.189697 889.081482,356.247314 898.284851,355.185425 
	C904.322266,354.488831 909.293945,356.328125 913.222046,360.970367 
	C905.637268,367.580414 898.121704,374.272064 890.450073,380.779724 
	C881.023926,388.775757 871.454285,396.602386 861.975952,404.537231 
	C859.319153,406.761353 856.765381,409.108459 853.997803,411.699097 
z"/>
<path fill="#476175" opacity="1.000000" stroke="none" 
	d="
M885.837769,346.034546 
	C894.772400,338.323395 903.626953,330.517029 912.657715,322.920074 
	C934.694397,304.382111 956.804565,285.931519 978.919128,267.486511 
	C980.159485,266.451874 981.706116,265.784515 983.460693,264.915283 
	C978.262146,273.038086 972.542847,281.082703 967.222168,289.382843 
	C963.492554,295.200928 960.218567,301.319427 956.899048,307.390106 
	C951.829834,316.660614 947.250122,326.221588 941.746826,335.221649 
	C939.250793,339.303558 935.038086,342.335785 930.946289,345.996582 
	C928.393555,347.398682 926.341614,348.466888 924.640991,349.940582 
	C922.067383,352.170654 919.438599,353.411041 916.068115,351.909790 
	C916.049133,351.914978 916.069031,351.948944 915.964844,351.724762 
	C915.660461,351.228577 915.407532,351.020966 914.868713,350.640320 
	C909.851929,345.902527 904.719910,343.050293 897.675232,344.924500 
	C893.898315,345.929352 889.794250,345.704498 885.837769,346.034546 
z"/>
<path fill="#4B5E99" opacity="1.000000" stroke="none" 
	d="
M385.955505,919.009521 
	C385.288116,922.155945 383.397675,923.427490 380.185211,923.003357 
	C377.056854,922.590332 373.869324,922.562988 370.768280,922.020386 
	C366.118011,921.206726 364.534424,923.445740 364.171234,927.656921 
	C363.773407,932.270386 363.043884,936.855286 362.196686,941.744873 
	C356.143463,935.378540 350.279358,928.781860 344.579132,922.046448 
	C336.653931,912.681946 328.851501,903.213501 321.205566,893.188721 
	C322.371338,892.465820 323.459045,891.985718 324.263611,892.279846 
	C329.414215,894.163086 331.193542,891.901428 331.450745,887.008606 
	C331.923096,878.023193 332.604156,869.048767 333.204865,859.969055 
	C333.942688,860.627686 335.005829,861.386475 335.835999,862.346680 
	C347.253174,875.552185 358.565582,888.849060 370.064392,901.982849 
	C375.175873,907.820862 380.647400,913.343628 385.955505,919.009521 
z"/>
<path fill="#C4A857" opacity="1.000000" stroke="none" 
	d="
M254.606293,823.908936 
	C257.071838,823.474976 259.277649,823.435730 261.222748,822.703735 
	C273.377625,818.129089 285.513092,813.497559 297.580566,808.697632 
	C313.784485,802.252380 330.637177,798.679382 348.832581,796.872559 
	C356.826691,797.596863 363.905518,798.320007 371.321045,799.231567 
	C375.960114,800.223694 380.262482,801.027466 384.564880,801.831238 
	C384.535706,802.246521 384.506500,802.661743 384.477295,803.077026 
	C381.748596,803.077026 379.019836,803.084290 376.291168,803.075867 
	C360.324036,803.026489 344.496094,803.078491 328.698029,806.913940 
	C303.281525,813.084595 279.953003,824.714966 255.487244,833.326538 
	C251.421417,834.757690 250.558853,839.352234 252.876144,844.194092 
	C251.702728,844.863953 250.529312,845.533752 249.135742,846.058777 
	C248.608627,841.550964 248.016373,837.183960 248.077469,832.826172 
	C248.134995,828.721985 249.237137,824.878418 254.606293,823.908936 
z"/>
<path fill="#536368" opacity="1.000000" stroke="none" 
	d="
M185.925308,978.307312 
	C186.474380,988.608398 180.183105,995.238586 173.237946,1001.323914 
	C164.695969,1008.808289 155.664017,1015.746033 147.315109,1023.431946 
	C144.052383,1026.435669 140.706192,1026.186401 137.214066,1025.898804 
	C127.718262,1025.116943 118.246704,1024.029175 108.775734,1022.971313 
	C107.550652,1022.834473 105.903252,1022.517700 105.274689,1021.672180 
	C102.211784,1017.552246 97.676811,1017.688477 93.353691,1016.857117 
	C91.822708,1016.562744 90.532310,1015.017334 89.622787,1013.559204 
	C98.957718,1014.295898 107.862183,1015.193481 116.629005,1016.828979 
	C125.196907,1018.427368 132.454788,1017.865295 139.199875,1011.093018 
	C144.349396,1005.922729 151.133575,1002.380615 157.169128,998.461670 
	C155.964615,1000.232666 154.781586,1001.656128 153.598557,1003.079590 
	C153.853516,1003.458069 154.108490,1003.836548 154.363449,1004.214966 
	C160.792191,1000.942200 167.537521,998.143372 173.494400,994.164246 
	C175.889267,992.564514 176.954239,988.393433 174.294434,984.921143 
	C177.323807,982.485046 180.142700,980.306519 183.335846,978.127930 
	C184.448517,978.187622 185.186905,978.247498 185.925308,978.307312 
z"/>
<path fill="#C4A857" opacity="1.000000" stroke="none" 
	d="
M885.477600,346.188599 
	C889.794250,345.704498 893.898315,345.929352 897.675232,344.924500 
	C904.719910,343.050293 909.851929,345.902527 914.967163,350.870239 
	C915.489258,351.624725 915.746094,351.828522 916.069031,351.948944 
	C916.069031,351.948944 916.049133,351.914978 916.033691,352.187683 
	C916.002930,352.646210 915.987549,352.832062 915.987183,353.005646 
	C916.002075,352.993408 916.027954,352.964417 915.646240,352.994446 
	C913.993774,352.650604 912.412842,352.631836 911.506531,351.840485 
	C907.845032,348.643311 903.930176,349.569550 899.811951,350.459625 
	C893.642700,351.793060 887.455383,353.321045 881.195312,353.907501 
	C856.673157,356.204865 833.972168,364.698486 811.078308,373.874023 
	C804.185364,374.882385 798.468140,377.601135 793.526733,381.984650 
	C789.229736,380.600647 784.932739,379.216644 780.544983,377.465942 
	C789.680847,373.407043 798.908020,369.716370 808.133362,366.021118 
	C809.767395,365.366577 811.393555,364.692627 813.380249,364.027863 
	C815.463013,363.888672 817.314270,364.104065 818.892395,363.546478 
	C824.701904,361.493835 830.597412,359.553497 836.139404,356.900269 
	C850.105957,350.213715 865.015991,348.134460 880.191345,347.041962 
	C881.841614,346.923157 883.475769,346.581146 885.477600,346.188599 
z"/>
<path fill="#C4A857" opacity="1.000000" stroke="none" 
	d="
M157.190598,998.114197 
	C151.133575,1002.380615 144.349396,1005.922729 139.199875,1011.093018 
	C132.454788,1017.865295 125.196907,1018.427368 116.629005,1016.828979 
	C107.862183,1015.193481 98.957718,1014.295898 89.708809,1013.189697 
	C88.624519,1010.268188 87.294373,1007.198120 90.057404,1004.054565 
	C94.489265,1007.905884 99.773048,1007.802795 105.119766,1008.110901 
	C112.588364,1008.541321 120.010414,1009.799255 127.479279,1010.194031 
	C129.981522,1010.326294 133.146317,1009.608032 135.020660,1008.072815 
	C149.060059,996.573181 162.852005,984.771362 177.229172,972.650696 
	C180.251343,970.069214 182.765762,967.901245 185.489349,965.703125 
	C185.698517,965.673096 186.003326,965.380310 186.003326,965.380310 
	C187.759048,964.078247 189.514755,962.776123 191.799469,961.181030 
	C192.576233,960.601440 192.824005,960.314819 193.071793,960.028198 
	C193.071808,960.028198 193.006714,960.013245 193.311401,960.034363 
	C194.090424,959.703247 194.564743,959.350952 195.039062,958.998657 
	C195.039047,958.998657 194.999573,959.000183 195.251068,958.944946 
	C195.681061,958.597900 195.859573,958.306091 196.038071,958.014221 
	C196.038071,958.014221 195.990250,958.003174 196.373199,958.070923 
	C200.223633,956.555542 203.691086,954.972473 207.158554,953.389343 
	C207.555618,953.924194 207.952667,954.459106 208.349731,954.993958 
	C202.011002,964.868225 190.883575,969.866028 182.961594,978.128052 
	C180.142700,980.306519 177.323807,982.485046 173.988159,985.007935 
	C171.686920,986.810913 169.902435,988.269592 167.835754,989.856079 
	C167.057312,990.338806 166.561066,990.693726 166.050079,991.047241 
	C166.035355,991.045898 166.035278,991.075500 165.834274,991.194580 
	C165.374374,991.501404 165.180878,991.741760 165.036133,992.027222 
	C165.019485,992.019592 165.032455,992.053894 164.823792,992.169739 
	C164.344254,992.473694 164.153290,992.723022 164.026932,993.028320 
	C164.011597,993.023010 164.024246,993.053345 163.740906,993.088379 
	C162.992783,993.434204 162.528030,993.745056 162.047638,994.046692 
	C162.031982,994.037476 162.032593,994.073792 161.829376,994.188477 
	C161.363419,994.488464 161.175369,994.731628 161.054153,995.041382 
	C161.046265,995.050171 161.035217,995.071045 160.731766,995.130188 
	C159.641266,995.813110 158.854218,996.436890 158.052185,997.051025 
	C158.037216,997.041321 158.033707,997.076782 157.827881,997.186584 
	C157.354492,997.479065 157.171204,997.724609 157.116989,998.031189 
	C157.161774,998.029297 157.190598,998.114197 157.190598,998.114197 
z"/>
<path fill="#7E6C36" opacity="1.000000" stroke="none" 
	d="
M253.166290,844.116882 
	C250.558853,839.352234 251.421417,834.757690 255.487244,833.326538 
	C279.953003,824.714966 303.281525,813.084595 328.698029,806.913940 
	C344.496094,803.078491 360.324036,803.026489 376.291168,803.075867 
	C379.019836,803.084290 381.748596,803.077026 384.477295,803.077026 
	C384.506500,802.661743 384.535706,802.246521 384.564880,801.831238 
	C380.262482,801.027466 375.960114,800.223694 371.759033,799.168579 
	C374.471985,799.209534 377.078278,799.569336 379.696686,799.775696 
	C382.446533,799.992554 385.609863,800.989990 387.881653,800.005676 
	C392.777710,797.884460 397.218109,794.711487 401.844940,791.968872 
	C406.764740,793.365906 410.928772,795.831238 413.694397,800.646729 
	C404.780914,808.627808 394.861603,812.548767 382.962189,809.050781 
	C382.046143,808.781494 380.985382,809.004517 379.563660,809.009644 
	C377.387573,808.658447 375.649780,808.047974 373.890106,807.976440 
	C365.256348,807.625305 356.617920,807.334351 347.978424,807.211670 
	C345.519226,807.176697 343.042236,807.721436 340.588165,808.096619 
	C313.335815,812.264099 288.466400,823.745850 262.960541,833.301392 
	C259.025360,834.775696 255.481033,836.100708 254.813019,841.488525 
	C254.436371,842.340393 254.310898,842.655396 254.118256,843.232910 
	C254.037628,843.675476 254.024139,843.855530 254.016937,844.020752 
	C254.023209,844.005920 254.056473,844.015686 254.056473,844.015686 
	C253.856461,844.023743 253.656448,844.031738 253.166290,844.116882 
z"/>
<path fill="#2B385E" opacity="1.000000" stroke="none" 
	d="
M386.102173,918.680542 
	C380.647400,913.343628 375.175873,907.820862 370.064392,901.982849 
	C358.565582,888.849060 347.253174,875.552185 335.835999,862.346680 
	C335.005829,861.386475 333.942688,860.627686 333.204865,859.969055 
	C332.604156,869.048767 331.923096,878.023193 331.450745,887.008606 
	C331.193542,891.901428 329.414215,894.163086 324.263611,892.279846 
	C323.459045,891.985718 322.371338,892.465820 321.126953,892.849060 
	C318.649445,890.606628 316.459595,888.103027 314.124878,885.295044 
	C315.891479,884.658569 317.798401,884.075134 319.715240,884.040466 
	C326.019928,883.926514 326.583344,883.337402 326.999542,876.899963 
	C327.393646,870.804077 328.054108,864.725403 329.048889,858.280762 
	C329.629059,857.311584 329.757812,856.700867 329.886597,856.090088 
	C331.003235,853.797668 332.119873,851.505249 333.550720,849.090820 
	C341.407745,857.694153 349.018341,866.362061 356.477020,875.158691 
	C366.938538,887.496887 377.287109,899.930847 387.839294,912.614014 
	C387.412689,914.719910 386.830750,916.535706 386.102173,918.680542 
z"/>
<path fill="#C4A857" opacity="1.000000" stroke="none" 
	d="
M966.960327,179.569580 
	C969.401550,179.896042 971.864319,180.678421 974.332886,181.986359 
	C974.247375,183.653397 974.010681,184.804794 974.087708,185.934799 
	C974.719421,195.202164 975.195190,204.487808 976.154480,213.722595 
	C976.835754,220.280807 974.433472,225.036728 969.861938,229.584564 
	C963.879272,235.536270 958.561096,242.156006 952.957092,248.488342 
	C948.546997,251.926987 944.136902,255.365616 939.378235,258.781158 
	C939.265869,249.676132 946.147278,244.492966 951.244446,238.365463 
	C955.673950,233.040619 960.384216,227.878082 965.490601,223.213242 
	C968.768738,220.218491 969.260254,216.972412 969.000977,213.044922 
	C968.274719,202.041962 967.647888,191.032425 966.960327,179.569580 
z"/>
<path fill="#786B3F" opacity="1.000000" stroke="none" 
	d="
M915.972229,353.017883 
	C915.987549,352.832062 916.002930,352.646210 916.052673,352.182495 
	C919.438599,353.411041 922.067383,352.170654 924.640991,349.940582 
	C926.341614,348.466888 928.393555,347.398682 930.640015,346.159332 
	C930.221191,349.982452 929.738647,353.882843 928.611389,357.587036 
	C926.979797,362.948364 923.730042,367.572510 916.811707,362.941162 
	C915.869080,362.310150 914.812866,361.848755 913.515625,361.139587 
	C909.293945,356.328125 904.322266,354.488831 898.284851,355.185425 
	C889.081482,356.247314 879.864380,357.189697 870.018005,358.317932 
	C869.155762,358.583038 869.013794,358.775757 868.956970,359.031281 
	C868.956970,359.031281 869.031860,359.023407 868.598450,358.904236 
	C864.123718,359.624115 859.980103,360.139038 856.063660,361.374023 
	C849.263062,363.518463 842.720459,366.203705 836.201538,369.292755 
	C828.875061,372.764465 819.755310,372.451752 811.415710,373.785431 
	C833.972168,364.698486 856.673157,356.204865 881.195312,353.907501 
	C887.455383,353.321045 893.642700,351.793060 899.811951,350.459625 
	C903.930176,349.569550 907.845032,348.643311 911.506531,351.840485 
	C912.412842,352.631836 913.993774,352.650604 915.653442,353.086731 
	C916.042236,353.148926 916.257751,353.196625 916.257751,353.196625 
	C916.257751,353.196625 915.972229,353.017883 915.972229,353.017883 
z"/>
<path fill="#2B385E" opacity="1.000000" stroke="none" 
	d="
M287.349854,802.903748 
	C281.617920,796.129333 276.154358,789.262268 270.835571,782.284851 
	C268.944244,779.803711 266.842041,777.254456 265.822235,774.385803 
	C263.729370,768.499023 259.666412,764.586975 255.231369,760.424500 
	C248.399185,754.012146 242.538803,746.564331 236.217529,738.964539 
	C237.443741,737.909851 238.718582,737.446350 239.993408,736.982849 
	C247.423264,745.615845 254.925995,754.187500 262.265472,762.896667 
	C272.495880,775.036377 282.604187,787.278992 292.897125,799.793823 
	C291.244751,800.995972 289.460022,801.881775 287.349854,802.903748 
z"/>
<path fill="#476175" opacity="1.000000" stroke="none" 
	d="
M239.986847,736.544922 
	C238.718582,737.446350 237.443741,737.909851 236.012482,738.694519 
	C234.636398,739.551086 233.416718,740.086426 231.714996,740.871826 
	C231.047089,741.090698 230.861237,741.059692 230.675400,741.028625 
	C231.488098,730.062134 232.204498,719.086365 233.250824,708.142212 
	C233.365311,706.944824 235.309097,705.845032 236.527573,704.850891 
	C237.902359,703.729248 239.416519,702.778381 240.912415,701.412598 
	C245.192276,701.834839 242.870651,705.078552 242.743286,706.903320 
	C242.062698,716.654602 240.946121,726.375549 239.986847,736.544922 
z"/>
<path fill="#7E6C36" opacity="1.000000" stroke="none" 
	d="
M183.335861,978.127930 
	C190.883575,969.866028 202.011002,964.868225 208.349731,954.993958 
	C207.952667,954.459106 207.555618,953.924194 207.158554,953.389343 
	C203.691086,954.972473 200.223633,956.555542 196.383652,958.093079 
	C202.410110,949.294983 208.763123,940.495728 217.938629,934.315125 
	C219.279129,933.412109 220.730133,932.673157 222.488007,931.828369 
	C218.514008,940.993652 214.522095,950.374023 209.669891,959.286011 
	C207.915802,962.507690 204.244446,964.791931 201.191620,967.175720 
	C196.424057,970.898499 191.438187,974.341736 186.235077,978.105347 
	C185.186905,978.247498 184.448517,978.187622 183.335861,978.127930 
z"/>
<path fill="#786B3F" opacity="1.000000" stroke="none" 
	d="
M953.322083,248.335236 
	C958.561096,242.156006 963.879272,235.536270 969.861938,229.584564 
	C974.433472,225.036728 976.835754,220.280807 976.154480,213.722595 
	C975.195190,204.487808 974.719421,195.202164 974.087708,185.934799 
	C974.010681,184.804794 974.247375,183.653397 974.591553,182.203812 
	C975.074036,182.214264 975.303589,182.532806 975.788696,182.999451 
	C976.676575,187.988770 977.447327,192.816803 977.910767,197.674149 
	C978.719666,206.153061 979.339600,214.649994 980.104858,223.576096 
	C976.200562,227.803879 972.230225,231.594940 968.008301,235.766754 
	C967.826355,236.087967 967.895996,236.028442 967.965637,235.968903 
	C972.443542,235.212051 976.921448,234.455215 981.399292,233.698380 
	C981.521667,233.894882 981.643982,234.091385 981.766357,234.287888 
	C972.406555,238.919296 963.046814,243.550720 953.322083,248.335236 
z"/>
<path fill="#2B385E" opacity="1.000000" stroke="none" 
	d="
M257.124512,879.345154 
	C265.367676,879.629333 273.684540,880.211731 281.989380,880.932495 
	C283.211182,881.038574 284.375916,881.801880 285.796417,882.547607 
	C279.287903,887.219727 272.549988,891.605408 265.472687,896.065491 
	C262.486969,890.655884 259.840668,885.171875 257.124512,879.345154 
z"/>
<path fill="#2B385E" opacity="1.000000" stroke="none" 
	d="
M230.596054,741.415405 
	C230.861237,741.059692 231.047089,741.090698 231.511536,741.156982 
	C232.449432,745.110779 233.895401,749.085632 233.619858,752.937256 
	C232.807388,764.294800 232.541534,764.228821 221.246399,764.004639 
	C218.654221,763.953247 216.053253,764.344910 213.139465,764.827209 
	C211.904251,763.823425 210.985901,762.525085 209.981262,760.881836 
	C214.197693,760.511230 218.589630,759.929871 222.780106,760.602844 
	C227.804825,761.409790 229.100815,759.731873 229.074371,754.990173 
	C229.049896,750.597046 229.997284,746.198425 230.596054,741.415405 
z"/>
<path fill="#476175" opacity="1.000000" stroke="none" 
	d="
M417.893738,956.799072 
	C417.475281,954.317261 416.870972,951.456909 417.118774,948.672424 
	C417.850555,940.448547 418.827454,932.242249 419.931335,924.059143 
	C420.161133,922.355469 421.349060,920.781067 422.411102,919.000977 
	C422.321014,931.528442 422.252350,944.243408 417.893738,956.799072 
z"/>
<path fill="#476175" opacity="1.000000" stroke="none" 
	d="
M998.007812,226.752014 
	C994.862244,228.177704 991.877686,229.272049 988.780579,230.407654 
	C989.496643,221.783951 992.611816,218.457932 1000.755005,217.837418 
	C1000.061890,220.836151 999.115356,223.628403 998.007812,226.752014 
z"/>
<path fill="#C93449" opacity="1.000000" stroke="none" 
	d="
M837.826294,499.656525 
	C833.355591,525.348389 828.172363,550.652771 824.329895,576.159058 
	C822.238220,590.043396 817.225891,602.070312 809.639954,613.730835 
	C791.745239,641.237244 774.597412,669.229004 757.014526,696.940063 
	C755.782593,698.881592 753.460388,700.131348 750.943359,701.880859 
	C724.978394,709.726685 699.702026,717.351929 674.481995,725.159241 
	C672.833618,725.669678 670.853149,727.312927 670.316162,728.872986 
	C663.669983,748.181274 657.263428,767.572021 650.795166,786.941528 
	C649.124268,788.504028 647.654541,790.386841 645.752502,791.581482 
	C611.095886,813.349609 576.387390,835.035156 541.409668,856.921997 
	C530.404114,848.956970 519.750366,840.711914 508.939148,832.678650 
	C482.881012,813.316162 456.559662,794.301575 430.740753,774.626648 
	C420.450806,766.785217 411.235199,757.539001 401.478546,748.991577 
	C386.345154,735.733704 370.969238,722.742920 356.132538,709.162170 
	C351.848969,705.241211 348.772247,699.866760 345.634979,694.850464 
	C325.590210,662.800476 305.590668,630.720947 285.868225,598.472534 
	C283.813446,595.112671 283.385162,590.633362 282.684814,586.589905 
	C277.801727,558.397156 272.996613,530.190430 268.349213,501.958069 
	C268.002563,499.852264 268.532227,497.207123 269.581482,495.331177 
	C276.082703,483.707794 283.110809,472.373383 289.412933,460.646881 
	C292.391357,455.104858 296.986786,452.130829 302.105896,449.196686 
	C334.029388,430.898773 365.850250,412.421509 397.812469,394.191864 
	C399.601532,393.171448 402.665802,393.031799 404.594635,393.815704 
	C431.436188,404.724579 458.169067,415.900482 484.958038,426.939392 
	C502.818024,434.298981 520.690063,441.633148 538.659485,448.717896 
	C540.689636,449.518250 543.632019,449.248688 545.739929,448.423828 
	C585.602783,432.825165 625.403259,417.067291 665.218140,401.346130 
	C666.921936,400.673370 668.833679,400.325043 670.317749,399.331451 
	C678.465271,393.876587 685.736206,397.073944 693.567139,400.646942 
	C727.496643,416.127716 761.609863,431.205841 795.653076,446.437561 
	C799.909241,448.341858 804.272583,450.060699 808.339172,452.311829 
	C810.396912,453.450989 812.395386,455.299469 813.577942,457.320374 
	C821.733948,471.258514 829.667542,485.326782 837.826294,499.656525 
z"/>
<path fill="#769CBC" opacity="1.000000" stroke="none" 
	d="
M811.078308,373.874023 
	C819.755310,372.451752 828.875061,372.764465 836.201538,369.292755 
	C842.720459,366.203705 849.263062,363.518463 856.063660,361.374023 
	C859.980103,360.139038 864.123718,359.624115 868.595093,358.866760 
	C861.020874,365.915466 853.024536,372.891785 845.009399,379.846436 
	C839.367310,384.742065 833.699646,389.608185 827.871643,394.804199 
	C816.333801,390.999176 804.967712,386.877441 793.564209,382.370178 
	C798.468140,377.601135 804.185364,374.882385 811.078308,373.874023 
z"/>
<path fill="#476175" opacity="1.000000" stroke="none" 
	d="
M401.892090,791.606567 
	C397.218109,794.711487 392.777710,797.884460 387.881653,800.005676 
	C385.609863,800.989990 382.446533,799.992554 379.696686,799.775696 
	C377.078278,799.569336 374.471985,799.209534 371.422363,798.980225 
	C363.905518,798.320007 356.826691,797.596863 349.266479,796.817017 
	C359.091553,787.923950 369.397980,779.087646 380.021484,770.091125 
	C386.912659,775.742126 393.533813,781.501831 400.010803,787.419250 
	C400.996094,788.319397 401.313141,789.950928 401.892090,791.606567 
z"/>
<path fill="#7B1C2A" opacity="1.000000" stroke="none" 
	d="
M651.152222,786.889160 
	C657.263428,767.572021 663.669983,748.181274 670.316162,728.872986 
	C670.853149,727.312927 672.833618,725.669678 674.481995,725.159241 
	C699.702026,717.351929 724.978394,709.726685 750.630859,702.039001 
	C748.065918,705.074097 745.339722,708.396729 742.120483,711.140930 
	C720.875000,729.251831 699.570007,747.293762 678.183960,765.238403 
	C669.421021,772.591125 660.408386,779.646240 651.152222,786.889160 
z"/>
<path fill="#CECCCB" opacity="1.000000" stroke="none" 
	d="
M965.026611,128.560013 
	C963.231750,128.634415 961.596680,128.557587 960.057434,128.133118 
	C953.295654,126.268456 946.497986,124.488548 939.874268,122.209862 
	C938.630127,121.781815 938.121094,119.216728 937.099365,117.326958 
	C936.623840,111.171051 935.861877,105.304977 936.127869,99.485886 
	C936.523254,90.832802 940.774353,85.983406 948.822327,83.690407 
	C951.379517,82.961815 953.921814,82.172287 956.501282,81.532677 
	C960.002014,80.664635 974.655640,87.426735 976.530151,90.459457 
	C977.404236,91.873550 978.866028,92.924355 980.429626,94.120262 
	C981.919495,96.753670 983.226685,99.347961 984.091675,102.082161 
	C984.591980,103.663872 984.379639,105.471046 984.243774,107.860825 
	C982.326477,113.486404 980.653442,118.427933 978.980347,123.369461 
	C974.397095,124.995903 969.813782,126.622345 965.026611,128.560013 
z"/>
<path fill="#476175" opacity="1.000000" stroke="none" 
	d="
M185.280182,965.733215 
	C182.765762,967.901245 180.251343,970.069214 177.411285,972.392822 
	C178.085999,960.043335 179.063400,947.536255 180.134979,935.037170 
	C180.211670,934.142578 180.977692,933.307068 181.708786,932.197083 
	C182.298904,932.388672 182.603439,932.827209 182.760742,933.898682 
	C182.073074,939.586853 181.833679,944.697632 180.915634,949.683472 
	C179.778458,955.859253 180.366501,961.319702 185.280182,965.733215 
z"/>
<path fill="#769EBF" opacity="1.000000" stroke="none" 
	d="
M254.185394,842.970398 
	C254.310898,842.655396 254.436371,842.340393 254.748505,841.842163 
	C261.653656,845.634705 262.254150,846.110657 267.045929,840.065247 
	C273.764404,831.589111 282.566864,828.367188 292.650757,826.535217 
	C303.555542,824.554199 314.317444,821.786865 326.070679,819.154419 
	C325.423462,821.078674 325.319733,822.422546 324.624451,823.295044 
	C317.287781,832.502625 315.583008,843.358154 315.118988,854.645447 
	C314.928009,859.291931 314.004822,863.934082 314.120209,868.560547 
	C314.248138,873.689697 311.869141,874.285583 307.615845,873.677795 
	C302.028595,872.879395 296.277863,873.035767 290.766327,871.935425 
	C278.410522,869.468811 267.094482,873.146851 255.357056,877.074768 
	C251.698273,878.028564 251.840271,875.787354 252.000916,873.731506 
	C252.647415,865.457886 253.370270,857.190247 254.037399,848.918152 
	C254.144135,847.594727 254.110474,846.260010 254.099091,844.473083 
	C254.056473,844.015686 254.023209,844.005920 254.162247,843.938416 
	C254.483841,843.551208 254.445206,843.251038 254.185394,842.970398 
z"/>
<path fill="#2B385E" opacity="1.000000" stroke="none" 
	d="
M185.489349,965.703125 
	C180.366501,961.319702 179.778458,955.859253 180.915634,949.683472 
	C181.833679,944.697632 182.073074,939.586853 182.825836,934.160889 
	C187.785233,943.638306 187.299423,953.991333 185.998749,964.901855 
	C186.003326,965.380310 185.698517,965.673096 185.489349,965.703125 
z"/>
<path fill="#7E6C36" opacity="1.000000" stroke="none" 
	d="
M194.744690,959.046448 
	C194.564743,959.350952 194.090424,959.703247 193.309418,960.067688 
	C193.485245,959.751343 193.967773,959.422791 194.744690,959.046448 
z"/>
<path fill="#7E6C36" opacity="1.000000" stroke="none" 
	d="
M192.810455,960.139771 
	C192.824005,960.314819 192.576233,960.601440 192.052719,960.987610 
	C192.034348,960.808533 192.291733,960.529907 192.810455,960.139771 
z"/>
<path fill="#7E6C36" opacity="1.000000" stroke="none" 
	d="
M195.797363,958.107056 
	C195.859573,958.306091 195.681061,958.597900 195.246429,958.964172 
	C195.179077,958.759033 195.367859,958.479492 195.797363,958.107056 
z"/>
<path fill="#7E6C36" opacity="1.000000" stroke="none" 
	d="
M979.059570,123.170227 
	C980.653442,118.427933 982.326477,113.486404 984.156006,108.269409 
	C984.058533,110.696068 983.804565,113.398178 983.465088,116.473259 
	C981.965942,118.887810 980.552368,120.929398 979.059570,123.170227 
z"/>
<path fill="#4B5E99" opacity="1.000000" stroke="none" 
	d="
M329.717224,856.287354 
	C329.757812,856.700867 329.629059,857.311584 329.263184,857.933594 
	C329.200012,857.458008 329.373962,856.971313 329.717224,856.287354 
z"/>
<path fill="#769CBC" opacity="1.000000" stroke="none" 
	d="
M869.091553,358.918610 
	C869.013794,358.775757 869.155762,358.583038 869.552063,358.382629 
	C869.572327,358.492920 869.407288,358.657501 869.091553,358.918610 
z"/>
<path fill="#786B3F" opacity="1.000000" stroke="none" 
	d="
M915.964844,351.724762 
	C915.746094,351.828522 915.489258,351.624725 915.200195,351.107666 
	C915.407532,351.020966 915.660461,351.228577 915.964844,351.724762 
z"/>
<path fill="#769CBC" opacity="1.000000" stroke="none" 
	d="
M168.117981,989.728210 
	C169.902435,988.269592 171.686920,986.810913 173.777679,985.265503 
	C176.954239,988.393433 175.889267,992.564514 173.494400,994.164246 
	C167.537521,998.143372 160.792191,1000.942200 154.363449,1004.214966 
	C154.108490,1003.836548 153.853516,1003.458069 153.598557,1003.079590 
	C154.781586,1001.656128 155.964615,1000.232666 157.169128,998.461670 
	C157.190598,998.114197 157.161774,998.029297 157.394775,998.024170 
	C157.763092,997.704956 157.898376,997.390869 158.033691,997.076782 
	C158.033707,997.076782 158.037216,997.041321 158.390076,997.162292 
	C159.507034,996.545898 160.271133,995.808472 161.035217,995.071045 
	C161.035217,995.071045 161.046265,995.050171 161.321503,995.014771 
	C161.742004,994.677490 161.887299,994.375610 162.032593,994.073792 
	C162.032593,994.073792 162.031982,994.037476 162.352478,994.114380 
	C163.123413,993.812012 163.573837,993.432678 164.024261,993.053345 
	C164.024246,993.053345 164.011597,993.023010 164.278198,992.968933 
	C164.707382,992.627869 164.869934,992.340881 165.032471,992.053894 
	C165.032455,992.053894 165.019485,992.019592 165.291183,991.979797 
	C165.720352,991.651855 165.877808,991.363647 166.035278,991.075500 
	C166.035278,991.075500 166.035355,991.045898 166.382843,991.055908 
	C167.192886,990.620056 167.655441,990.174133 168.117981,989.728210 
z"/>
<path fill="#536368" opacity="1.000000" stroke="none" 
	d="
M160.731781,995.130188 
	C160.271133,995.808472 159.507034,996.545898 158.405045,997.171997 
	C158.854218,996.436890 159.641266,995.813110 160.731781,995.130188 
z"/>
<path fill="#536368" opacity="1.000000" stroke="none" 
	d="
M163.740906,993.088379 
	C163.573837,993.432678 163.123413,993.812012 162.368134,994.123596 
	C162.528030,993.745056 162.992783,993.434204 163.740906,993.088379 
z"/>
<path fill="#536368" opacity="1.000000" stroke="none" 
	d="
M167.835770,989.856079 
	C167.655441,990.174133 167.192886,990.620056 166.397583,991.057312 
	C166.561066,990.693726 167.057312,990.338806 167.835770,989.856079 
z"/>
<path fill="#536368" opacity="1.000000" stroke="none" 
	d="
M165.834259,991.194580 
	C165.877808,991.363647 165.720352,991.651855 165.307831,991.987427 
	C165.180878,991.741760 165.374374,991.501404 165.834259,991.194580 
z"/>
<path fill="#536368" opacity="1.000000" stroke="none" 
	d="
M164.823822,992.169739 
	C164.869934,992.340881 164.707382,992.627869 164.293549,992.974243 
	C164.153290,992.723022 164.344254,992.473694 164.823822,992.169739 
z"/>
<path fill="#536368" opacity="1.000000" stroke="none" 
	d="
M161.829376,994.188477 
	C161.887299,994.375610 161.742004,994.677490 161.329376,995.005981 
	C161.175369,994.731628 161.363419,994.488464 161.829376,994.188477 
z"/>
<path fill="#536368" opacity="1.000000" stroke="none" 
	d="
M157.827881,997.186584 
	C157.898376,997.390869 157.763092,997.704956 157.350006,998.026123 
	C157.171204,997.724609 157.354492,997.479065 157.827881,997.186584 
z"/>
<path fill="#4B5E99" opacity="1.000000" stroke="none" 
	d="
M254.118256,843.232910 
	C254.445206,843.251038 254.483841,843.551208 254.155975,843.953247 
	C254.024139,843.855530 254.037628,843.675476 254.118256,843.232910 
z"/>
<path fill="#C4A857" opacity="1.000000" stroke="none" 
	d="
M915.987183,353.005646 
	C915.972229,353.017883 916.257751,353.196625 916.257751,353.196625 
	C916.257751,353.196625 916.042236,353.148926 916.035095,353.056671 
	C916.027954,352.964417 916.002075,352.993408 915.987183,353.005646 
z"/>
<path fill="#769FC0" opacity="1.000000" stroke="none" 
	d="
M967.976929,235.978973 
	C967.895996,236.028442 967.826355,236.087967 967.882690,236.076416 
	C968.008606,236.005341 967.988281,235.989059 967.976929,235.978973 
z"/>
</svg>